<svg viewBox="0 0 560 360" xmlns="http://www.w3.org/2000/svg" font-family="-apple-system,BlinkMacSystemFont,'Segoe UI',Helvetica,Arial,sans-serif">

  <!-- Background -->
  <rect width="560" height="360" fill="#FAFAFA" rx="12" stroke="#E5E7EB" stroke-width="1"/>

  <!-- Title -->
  <text x="280" y="27" text-anchor="middle" font-size="15" font-weight="700" fill="#111827" letter-spacing="-0.3">Latency at c=1 — Single Request</text>
  <text x="280" y="43" text-anchor="middle" font-size="11" fill="#9CA3AF">Qwen3-4B · H200 · P50 (left) · P95 (right) · ratios vs Prelude</text>

  <!-- Grid lines (y_bottom=280, scale=7.03: 0→280, 10→210, 20→139, 30→69) -->
  <line x1="70" y1="280" x2="510" y2="280" stroke="#D1D5DB" stroke-width="1"/>
  <line x1="70" y1="210" x2="510" y2="210" stroke="#E5E7EB" stroke-width="1" stroke-dasharray="4,3"/>
  <line x1="70" y1="139" x2="510" y2="139" stroke="#E5E7EB" stroke-width="1" stroke-dasharray="4,3"/>
  <line x1="70" y1="69"  x2="510" y2="69"  stroke="#E5E7EB" stroke-width="1" stroke-dasharray="4,3"/>
  <line x1="70" y1="55"  x2="70"  y2="280" stroke="#D1D5DB" stroke-width="1"/>

  <!-- Y-axis labels -->
  <text x="62" y="283" text-anchor="end" font-size="12" fill="#9CA3AF">0</text>
  <text x="62" y="213" text-anchor="end" font-size="12" fill="#9CA3AF">10</text>
  <text x="62" y="142" text-anchor="end" font-size="12" fill="#9CA3AF">20</text>
  <text x="62" y="72"  text-anchor="end" font-size="12" fill="#9CA3AF">30</text>
  <text x="15" y="175" text-anchor="middle" font-size="12" fill="#9CA3AF" transform="rotate(-90,15,175)">latency (ms)</text>

  <!-- ── Prelude  group_left=70 ── -->
  <!-- P50: x=88, y=172, h=108 -->
  <rect x="88"  y="172" width="50" height="108" fill="#93C5FD" rx="3"/>
  <!-- P95: x=148, y=132, h=148 -->
  <rect x="148" y="132" width="50" height="148" fill="#3B82F6" rx="3"/>
  <text x="113" y="167" text-anchor="middle" font-size="11" font-weight="700" fill="#1E40AF">15.4 ★</text>
  <text x="173" y="127" text-anchor="middle" font-size="11" font-weight="700" fill="#1E40AF">21.1 ★</text>
  <text x="143" y="298" text-anchor="middle" font-size="13" fill="#374151" font-weight="600">Prelude</text>

  <!-- ── vLLM  group_left=217 ── -->
  <!-- P50: x=235, y=153, h=127  → 1.18× slower -->
  <rect x="235" y="153" width="50" height="127" fill="#94A3B8" rx="3"/>
  <!-- P95: x=295, y=84, h=196  → 1.32× slower -->
  <rect x="295" y="84"  width="50" height="196" fill="#64748B" rx="3"/>
  <text x="260" y="148" text-anchor="middle" font-size="11" fill="#475569">1.18×</text>
  <text x="320" y="79"  text-anchor="middle" font-size="11" fill="#475569">1.32×</text>
  <text x="290" y="298" text-anchor="middle" font-size="13" fill="#374151" font-weight="600">vLLM</text>

  <!-- ── SGLang  group_left=363 ── -->
  <!-- P50: x=381, y=134, h=146  → 1.35× slower -->
  <rect x="381" y="134" width="50" height="146" fill="#CBD5E1" rx="3" stroke="#94A3B8" stroke-width="0.5"/>
  <!-- P95: x=441, y=96, h=184  → 1.24× slower -->
  <rect x="441" y="96"  width="50" height="184" fill="#94A3B8" rx="3"/>
  <text x="406" y="129" text-anchor="middle" font-size="11" fill="#475569">1.35×</text>
  <text x="466" y="91"  text-anchor="middle" font-size="11" fill="#475569">1.24×</text>
  <text x="436" y="298" text-anchor="middle" font-size="13" fill="#374151" font-weight="600">SGLang</text>

  <!-- Legend -->
  <rect x="136" y="318" width="12" height="12" fill="#93C5FD" rx="2"/>
  <rect x="152" y="318" width="12" height="12" fill="#3B82F6" rx="2"/>
  <text x="168" y="328" font-size="12" fill="#374151">Prelude</text>
  <rect x="228" y="318" width="12" height="12" fill="#94A3B8" rx="2"/>
  <rect x="244" y="318" width="12" height="12" fill="#64748B" rx="2"/>
  <text x="260" y="328" font-size="12" fill="#374151">vLLM</text>
  <rect x="306" y="318" width="12" height="12" fill="#CBD5E1" rx="2" stroke="#94A3B8" stroke-width="0.5"/>
  <rect x="322" y="318" width="12" height="12" fill="#94A3B8" rx="2"/>
  <text x="338" y="328" font-size="12" fill="#374151">SGLang</text>
  <text x="280" y="347" text-anchor="middle" font-size="11" fill="#9CA3AF">lighter = P50 · darker = P95 · ★ best · lower is better</text>
</svg>
