<svg viewBox="0 0 800 440" xmlns="http://www.w3.org/2000/svg" font-family="-apple-system,BlinkMacSystemFont,'Segoe UI',Helvetica,Arial,sans-serif">

  <!-- Background -->
  <rect width="800" height="440" fill="#FAFAFA" rx="12" stroke="#E5E7EB" stroke-width="1"/>

  <!-- Title -->
  <text x="400" y="27" text-anchor="middle" font-size="14" font-weight="700" fill="#111827" letter-spacing="-0.3">Prefill Throughput vs. Concurrency</text>
  <text x="400" y="43" text-anchor="middle" font-size="11" fill="#9CA3AF">Qwen3-4B · H200 · 512-token inputs · max_tokens=1</text>

  <!-- Grid lines (y_bottom=348, scale=1.45: 0→348, 50→276, 100→203, 150→131, 200→58) -->
  <line x1="70" y1="348" x2="770" y2="348" stroke="#D1D5DB" stroke-width="1"/>
  <line x1="70" y1="276" x2="770" y2="276" stroke="#E5E7EB" stroke-width="1" stroke-dasharray="4,3"/>
  <line x1="70" y1="203" x2="770" y2="203" stroke="#E5E7EB" stroke-width="1" stroke-dasharray="4,3"/>
  <line x1="70" y1="131" x2="770" y2="131" stroke="#E5E7EB" stroke-width="1" stroke-dasharray="4,3"/>
  <line x1="70" y1="58"  x2="770" y2="58"  stroke="#E5E7EB" stroke-width="1" stroke-dasharray="4,3"/>
  <line x1="70" y1="58"  x2="70"  y2="348" stroke="#D1D5DB" stroke-width="1"/>

  <!-- Y-axis labels -->
  <text x="62" y="351" text-anchor="end" font-size="10.5" fill="#9CA3AF">0</text>
  <text x="62" y="279" text-anchor="end" font-size="10.5" fill="#9CA3AF">50</text>
  <text x="62" y="206" text-anchor="end" font-size="10.5" fill="#9CA3AF">100</text>
  <text x="62" y="134" text-anchor="end" font-size="10.5" fill="#9CA3AF">150</text>
  <text x="62" y="61"  text-anchor="end" font-size="10.5" fill="#9CA3AF">200</text>
  <text x="15" y="203" text-anchor="middle" font-size="10.5" fill="#9CA3AF" transform="rotate(-90,15,203)">req / s</text>

  <!-- ── GROUP 0  c=1  (Prelude 70.5, vLLM 47.8 → 0.68×, SGLang 42.6 → 0.60×) ── -->
  <rect x="93"  y="246" width="22" height="102" fill="#3B82F6" rx="2"/>
  <rect x="119" y="279" width="22" height="69"  fill="#94A3B8" rx="2"/>
  <rect x="145" y="286" width="22" height="62"  fill="#CBD5E1" rx="2" stroke="#94A3B8" stroke-width="0.5"/>
  <text x="104" y="241" text-anchor="middle" font-size="8.5" font-weight="600" fill="#1D4ED8">70.5</text>
  <text x="130" y="274" text-anchor="middle" font-size="8"   fill="#6B7280">0.68×</text>
  <text x="156" y="281" text-anchor="middle" font-size="8"   fill="#6B7280">0.60×</text>
  <text x="130" y="365" text-anchor="middle" font-size="11"  fill="#6B7280">c=1</text>

  <!-- ── GROUP 1  c=4  (Prelude 90.8, vLLM 88.7 → 0.98×, SGLang 73.5 → 0.81×) ── -->
  <rect x="209" y="216" width="22" height="132" fill="#3B82F6" rx="2"/>
  <rect x="235" y="219" width="22" height="129" fill="#94A3B8" rx="2"/>
  <rect x="261" y="241" width="22" height="107" fill="#CBD5E1" rx="2" stroke="#94A3B8" stroke-width="0.5"/>
  <text x="220" y="211" text-anchor="middle" font-size="8.5" font-weight="600" fill="#1D4ED8">90.8</text>
  <text x="246" y="214" text-anchor="middle" font-size="8"   fill="#6B7280">0.98×</text>
  <text x="272" y="236" text-anchor="middle" font-size="8"   fill="#6B7280">0.81×</text>
  <text x="246" y="365" text-anchor="middle" font-size="11"  fill="#6B7280">c=4</text>

  <!-- ── GROUP 2  c=16  (Prelude 157.6, vLLM 98.0 → 0.62×, SGLang 150.9 → 0.96×) ── -->
  <rect x="325" y="119" width="22" height="229" fill="#3B82F6" rx="2"/>
  <rect x="351" y="206" width="22" height="142" fill="#94A3B8" rx="2"/>
  <rect x="377" y="129" width="22" height="219" fill="#CBD5E1" rx="2" stroke="#94A3B8" stroke-width="0.5"/>
  <text x="336" y="114" text-anchor="middle" font-size="8.5" font-weight="600" fill="#1D4ED8">157.6</text>
  <text x="362" y="201" text-anchor="middle" font-size="8"   fill="#6B7280">0.62×</text>
  <text x="388" y="124" text-anchor="middle" font-size="8"   fill="#6B7280">0.96×</text>
  <text x="362" y="365" text-anchor="middle" font-size="11"  fill="#6B7280">c=16</text>

  <!-- ── GROUP 3  c=64  (Prelude 181.3, vLLM 137.4 → 0.76×, SGLang 151.4 → 0.84×) ── -->
  <rect x="441" y="85"  width="22" height="263" fill="#3B82F6" rx="2"/>
  <rect x="467" y="149" width="22" height="199" fill="#94A3B8" rx="2"/>
  <rect x="493" y="128" width="22" height="220" fill="#CBD5E1" rx="2" stroke="#94A3B8" stroke-width="0.5"/>
  <text x="452" y="80"  text-anchor="middle" font-size="8.5" font-weight="600" fill="#1D4ED8">181.3</text>
  <text x="478" y="144" text-anchor="middle" font-size="8"   fill="#6B7280">0.76×</text>
  <text x="504" y="123" text-anchor="middle" font-size="8"   fill="#6B7280">0.84×</text>
  <text x="478" y="365" text-anchor="middle" font-size="11"  fill="#6B7280">c=64</text>

  <!-- ── GROUP 4  c=96  PEAK  (Prelude 186.7, vLLM 134.5 → 0.72×, SGLang 151.5 → 0.81×) ── -->
  <rect x="557" y="77"  width="22" height="271" fill="#3B82F6" rx="2"/>
  <rect x="583" y="153" width="22" height="195" fill="#94A3B8" rx="2"/>
  <rect x="609" y="128" width="22" height="220" fill="#CBD5E1" rx="2" stroke="#94A3B8" stroke-width="0.5"/>
  <text x="568" y="72"  text-anchor="middle" font-size="8.5" font-weight="700" fill="#1D4ED8">186.7 ★</text>
  <text x="594" y="148" text-anchor="middle" font-size="8"   fill="#6B7280">0.72×</text>
  <text x="620" y="123" text-anchor="middle" font-size="8"   fill="#6B7280">0.81×</text>
  <text x="594" y="365" text-anchor="middle" font-size="11"  fill="#6B7280">c=96</text>

  <!-- ── GROUP 5  c=128  (Prelude 173.9, vLLM 134.3 → 0.77×, SGLang 148.2 → 0.85×) ── -->
  <rect x="673" y="96"  width="22" height="252" fill="#3B82F6" rx="2"/>
  <rect x="699" y="153" width="22" height="195" fill="#94A3B8" rx="2"/>
  <rect x="725" y="133" width="22" height="215" fill="#CBD5E1" rx="2" stroke="#94A3B8" stroke-width="0.5"/>
  <text x="684" y="91"  text-anchor="middle" font-size="8.5" font-weight="600" fill="#1D4ED8">173.9</text>
  <text x="710" y="148" text-anchor="middle" font-size="8"   fill="#6B7280">0.77×</text>
  <text x="736" y="128" text-anchor="middle" font-size="8"   fill="#6B7280">0.85×</text>
  <text x="710" y="365" text-anchor="middle" font-size="11"  fill="#6B7280">c=128</text>

  <!-- X-axis label -->
  <text x="420" y="382" text-anchor="middle" font-size="11" fill="#9CA3AF">Concurrency</text>

  <!-- Legend -->
  <rect x="250" y="397" width="10" height="10" fill="#3B82F6" rx="2"/>
  <text x="264" y="406" font-size="11" fill="#374151" font-weight="500">Prelude</text>
  <rect x="327" y="397" width="10" height="10" fill="#94A3B8" rx="2"/>
  <text x="341" y="406" font-size="11" fill="#374151" font-weight="500">vLLM</text>
  <rect x="387" y="397" width="10" height="10" fill="#CBD5E1" rx="2" stroke="#94A3B8" stroke-width="0.5"/>
  <text x="401" y="406" font-size="11" fill="#374151" font-weight="500">SGLang</text>
  <text x="458" y="406" font-size="11" fill="#9CA3AF"> · ratios relative to Prelude</text>

  <!-- Peak note -->
  <text x="400" y="426" text-anchor="middle" font-size="9.5" fill="#9CA3AF">★ Peak at c=96: Prelude 186.7 req/s × 512 tokens = 95,590 tok/s — 1.39× faster than vLLM · 1.23× faster than SGLang</text>
</svg>
