<svg width="250" height="32" viewBox="0 0 250 32" fill="none" xmlns="http://www.w3.org/2000/svg">
<path opacity="0.2" d="M3.4971 0H0V31.4739H3.4971V0Z" fill="#4F46E5"/>
<path opacity="0.4" d="M11.3658 0H8.74293C8.26008 0 7.86865 0.391426 7.86865 0.874274V30.5996C7.86865 31.0825 8.26008 31.4739 8.74293 31.4739H11.3658C11.8486 31.4739 12.24 31.0825 12.24 30.5996V0.874274C12.24 0.391426 11.8486 0 11.3658 0Z" fill="#4F46E5"/>
<path opacity="0.6" d="M20.5456 0H18.797C17.5899 0 16.6113 0.978565 16.6113 2.18569V29.2882C16.6113 30.4953 17.5899 31.4739 18.797 31.4739H20.5456C21.7527 31.4739 22.7312 30.4953 22.7312 29.2882V2.18569C22.7312 0.978565 21.7527 0 20.5456 0Z" fill="#4F46E5"/>
<path opacity="0.8" d="M34.971 3.93424C34.971 1.76142 33.2096 0 31.0368 0C28.864 0 27.1025 1.76142 27.1025 3.93424V27.5396C27.1025 29.7125 28.864 31.4739 31.0368 31.4739C33.2096 31.4739 34.971 29.7125 34.971 27.5396V3.93424Z" fill="#4F46E5"/>
<path d="M49.8338 5.68278C49.8338 2.54427 47.2896 0 44.151 0C41.0125 0 38.4683 2.54427 38.4683 5.68278V25.7911C38.4683 28.9296 41.0125 31.4739 44.151 31.4739C47.2896 31.4739 49.8338 28.9296 49.8338 25.7911V5.68278Z" fill="#4F46E5"/>
<path d="M231.997 31.4738V0.839233H250V4.86789H236.445V13.5547H248.531V17.5414H236.445V27.4452H250V31.4738H231.997Z" fill="#1C1C1C"/>
<path d="M203.436 31.4738V0.839233H211.996C214.011 0.839233 215.759 1.23091 217.242 2.01426C218.725 2.76963 219.872 3.84674 220.683 5.24558C221.523 6.64442 221.942 8.29504 221.942 10.1975V22.0736C221.942 23.9481 221.523 25.5987 220.683 27.0255C219.872 28.4523 218.725 29.5574 217.242 30.3408C215.759 31.0961 214.011 31.4738 211.996 31.4738H203.436ZM207.968 27.3612H211.996C213.675 27.3612 214.99 26.8996 215.941 25.9764C216.92 25.0252 217.41 23.7242 217.41 22.0736V10.1975C217.41 8.57481 216.92 7.30187 215.941 6.37864C214.99 5.42743 213.675 4.95182 211.996 4.95182H207.968V27.3612Z" fill="#1C1C1C"/>
<path d="M184.441 31.8935C181.504 31.8935 179.238 31.0961 177.643 29.5014C176.048 27.8788 175.251 25.6826 175.251 22.9129V0.839233H179.783V22.9129C179.783 24.4516 180.161 25.6686 180.916 26.5639C181.7 27.4591 182.875 27.9068 184.441 27.9068C185.98 27.9068 187.141 27.4591 187.924 26.5639C188.708 25.6686 189.099 24.4516 189.099 22.9129V0.839233H193.632V22.9129C193.632 25.6826 192.834 27.8788 191.24 29.5014C189.645 31.0961 187.379 31.8935 184.441 31.8935Z" fill="#1C1C1C"/>
<path d="M148.326 31.4738V0.839233H152.858V27.3193H166.245V31.4738H148.326Z" fill="#1C1C1C"/>
<path d="M119.596 31.4738V0.839233H137.599V4.86789H124.044V13.5547H136.13V17.5414H124.044V27.4452H137.599V31.4738H119.596Z" fill="#1C1C1C"/>
<path d="M91.0762 31.4738V0.839233H100.686C102.617 0.839233 104.295 1.21692 105.722 1.97229C107.149 2.69969 108.254 3.73483 109.037 5.07772C109.849 6.4206 110.254 8.00129 110.254 9.81978C110.254 11.8621 109.723 13.6386 108.66 15.1494C107.624 16.6321 106.212 17.6813 104.421 18.2967L110.674 31.4738H105.512L99.9308 18.8843H95.6084V31.4738H91.0762ZM95.6084 14.8976H100.686C102.197 14.8976 103.4 14.4499 104.295 13.5547C105.19 12.6314 105.638 11.4145 105.638 9.90371C105.638 8.33701 105.19 7.10603 104.295 6.21077C103.4 5.31552 102.197 4.86789 100.686 4.86789H95.6084V14.8976Z" fill="#1C1C1C"/>
<path d="M62.9761 31.4738V0.839233H73.0058C74.9921 0.839233 76.7127 1.21692 78.1675 1.97229C79.6502 2.72767 80.7833 3.80477 81.5666 5.20361C82.378 6.57447 82.7836 8.19713 82.7836 10.0716C82.7836 11.918 82.378 13.5407 81.5666 14.9395C80.7553 16.3384 79.6223 17.4155 78.1675 18.1709C76.7127 18.9262 74.9921 19.3039 73.0058 19.3039H67.5083V31.4738H62.9761ZM67.5083 15.2333H73.0058C74.5725 15.2333 75.8174 14.7717 76.7407 13.8484C77.6919 12.8972 78.1675 11.6383 78.1675 10.0716C78.1675 8.47689 77.6919 7.21794 76.7407 6.29471C75.8174 5.37147 74.5725 4.90986 73.0058 4.90986H67.5083V15.2333Z" fill="#1C1C1C"/>
</svg>
